<svg width="20" height="20" viewBox="0 0 20 20" fill="none" xmlns="http://www.w3.org/2000/svg">
<path d="M7.31883 17.5C7.15308 17.5 6.98734 17.4394 6.85648 17.3097C6.6035 17.0588 6.6035 16.6435 6.85648 16.3926L12.5442 10.7516C12.9629 10.3363 12.9629 9.6615 12.5442 9.24622L6.85648 3.60526C6.6035 3.35436 6.6035 2.93908 6.85648 2.68818C7.10946 2.43727 7.52819 2.43727 7.78117 2.68818L13.4689 8.32913C13.9138 8.77037 14.1667 9.36734 14.1667 9.99892C14.1667 10.6305 13.9225 11.2275 13.4689 11.6687L7.78117 17.3097C7.65032 17.4308 7.48457 17.5 7.31883 17.5Z" fill="#ABABAB"/>
</svg>
