<svg width="20" height="21" viewBox="0 0 20 21" fill="none" xmlns="http://www.w3.org/2000/svg">
<path d="M4.32507 5.81686C4.16673 5.81686 4.00007 5.7502 3.8834 5.63353C3.64173 5.39186 3.64173 4.99186 3.8834 4.7502L6.9084 1.7252C7.15007 1.48353 7.55007 1.48353 7.79173 1.7252C8.0334 1.96686 8.0334 2.36686 7.79173 2.60853L4.76673 5.63353C4.64173 5.7502 4.4834 5.81686 4.32507 5.81686Z" fill="white"/>
<path d="M15.6748 5.81686C15.5164 5.81686 15.3581 5.75853 15.2331 5.63353L12.2081 2.60853C11.9664 2.36686 11.9664 1.96686 12.2081 1.7252C12.4498 1.48353 12.8498 1.48353 13.0914 1.7252L16.1164 4.7502C16.3581 4.99186 16.3581 5.39186 16.1164 5.63353C15.9998 5.7502 15.8331 5.81686 15.6748 5.81686Z" fill="white"/>
<path d="M16.8415 9.33333C16.7832 9.33333 16.7248 9.33333 16.6665 9.33333H16.4748H3.33317C2.74984 9.34167 2.08317 9.34167 1.59984 8.85833C1.2165 8.48333 1.0415 7.9 1.0415 7.04167C1.0415 4.75 2.7165 4.75 3.5165 4.75H16.4832C17.2832 4.75 18.9582 4.75 18.9582 7.04167C18.9582 7.90833 18.7832 8.48333 18.3998 8.85833C17.9665 9.29167 17.3832 9.33333 16.8415 9.33333ZM3.5165 8.08333H16.6748C17.0498 8.09167 17.3998 8.09167 17.5165 7.975C17.5748 7.91667 17.6998 7.71667 17.6998 7.04167C17.6998 6.1 17.4665 6 16.4748 6H3.5165C2.52484 6 2.2915 6.1 2.2915 7.04167C2.2915 7.71667 2.42484 7.91667 2.47484 7.975C2.5915 8.08333 2.94984 8.08333 3.3165 8.08333H3.5165Z" fill="white"/>
<path d="M8.1333 15.7503C7.79163 15.7503 7.5083 15.467 7.5083 15.1253V12.167C7.5083 11.8253 7.79163 11.542 8.1333 11.542C8.47497 11.542 8.7583 11.8253 8.7583 12.167V15.1253C8.7583 15.4753 8.47497 15.7503 8.1333 15.7503Z" fill="white"/>
<path d="M11.9668 15.7503C11.6251 15.7503 11.3418 15.467 11.3418 15.1253V12.167C11.3418 11.8253 11.6251 11.542 11.9668 11.542C12.3085 11.542 12.5918 11.8253 12.5918 12.167V15.1253C12.5918 15.4753 12.3085 15.7503 11.9668 15.7503Z" fill="white"/>
<path d="M12.4083 19.4586H7.38329C4.39996 19.4586 3.73329 17.6836 3.47496 16.142L2.29996 8.93362C2.24162 8.59195 2.47496 8.27528 2.81662 8.21695C3.15829 8.15862 3.47496 8.39195 3.53329 8.73362L4.70829 15.9336C4.94996 17.4086 5.44996 18.2086 7.38329 18.2086H12.4083C14.55 18.2086 14.7916 17.4586 15.0666 16.0086L16.4666 8.71695C16.5333 8.37528 16.8583 8.15028 17.2 8.22528C17.5416 8.29195 17.7583 8.61695 17.6916 8.95862L16.2916 16.2503C15.9666 17.9419 15.425 19.4586 12.4083 19.4586Z" fill="white"/>
</svg>
