<svg width="20" height="20" viewBox="0 0 20 20" fill="none" xmlns="http://www.w3.org/2000/svg">
<path d="M9.58329 18.1253C4.87496 18.1253 1.04163 14.292 1.04163 9.58366C1.04163 4.87533 4.87496 1.04199 9.58329 1.04199C14.2916 1.04199 18.125 4.87533 18.125 9.58366C18.125 14.292 14.2916 18.1253 9.58329 18.1253ZM9.58329 2.29199C5.55829 2.29199 2.29163 5.56699 2.29163 9.58366C2.29163 13.6003 5.55829 16.8753 9.58329 16.8753C13.6083 16.8753 16.875 13.6003 16.875 9.58366C16.875 5.56699 13.6083 2.29199 9.58329 2.29199Z" fill="#1B1B1B"/>
<path d="M18.3333 18.9579C18.1749 18.9579 18.0166 18.8996 17.8916 18.7746L14.9498 15.8829C14.7081 15.6413 14.7081 15.2413 14.9498 14.9996C15.1915 14.7579 15.5915 14.7579 15.8331 14.9996L18.7749 17.8913C19.0166 18.1329 19.0166 18.5329 18.7749 18.7746C18.6499 18.8996 18.4916 18.9579 18.3333 18.9579Z" fill="#1B1B1B"/>
</svg>
