<svg width="12" height="12" viewBox="0 0 12 12" fill="none" xmlns="http://www.w3.org/2000/svg">
<path d="M6 11.375C3.035 11.375 0.625 8.965 0.625 6C0.625 3.035 3.035 0.625 6 0.625C8.965 0.625 11.375 3.035 11.375 6C11.375 8.965 8.965 11.375 6 11.375ZM6 1.375C3.45 1.375 1.375 3.45 1.375 6C1.375 8.55 3.45 10.625 6 10.625C8.55 10.625 10.625 8.55 10.625 6C10.625 3.45 8.55 1.375 6 1.375Z" fill="#F04A3F"/>
<path d="M4.58518 7.78969C4.49018 7.78969 4.39518 7.75469 4.32018 7.67969C4.17518 7.53469 4.17518 7.29469 4.32018 7.14969L7.15018 4.31969C7.29518 4.17469 7.53518 4.17469 7.68018 4.31969C7.82518 4.46469 7.82518 4.70469 7.68018 4.84969L4.85018 7.67969C4.78018 7.75469 4.68018 7.78969 4.58518 7.78969Z" fill="#F04A3F"/>
<path d="M7.41518 7.78969C7.32018 7.78969 7.22518 7.75469 7.15018 7.67969L4.32018 4.84969C4.17518 4.70469 4.17518 4.46469 4.32018 4.31969C4.46518 4.17469 4.70518 4.17469 4.85018 4.31969L7.68018 7.14969C7.82518 7.29469 7.82518 7.53469 7.68018 7.67969C7.60518 7.75469 7.51018 7.78969 7.41518 7.78969Z" fill="#F04A3F"/>
</svg>
