<svg width="10" height="11" viewBox="0 0 10 11" fill="none" xmlns="http://www.w3.org/2000/svg">
<path d="M9.31005 3.725C8.78505 1.415 6.77005 0.375 5.00005 0.375C5.00005 0.375 5.00005 0.375 4.99505 0.375C3.23005 0.375 1.21005 1.41 0.685048 3.72C0.100048 6.3 1.68005 8.485 3.11005 9.86C3.64005 10.37 4.32005 10.625 5.00005 10.625C5.68005 10.625 6.36005 10.37 6.88505 9.86C8.31505 8.485 9.89505 6.305 9.31005 3.725ZM5.00005 6.23C4.13005 6.23 3.42505 5.525 3.42505 4.655C3.42505 3.785 4.13005 3.08 5.00005 3.08C5.87005 3.08 6.57505 3.785 6.57505 4.655C6.57505 5.525 5.87005 6.23 5.00005 6.23Z" fill="#ABABAB"/>
</svg>
