<svg width="36" height="36" viewBox="0 0 36 36" fill="none" xmlns="http://www.w3.org/2000/svg">
<rect width="36" height="36" rx="18" fill="black" fill-opacity="0.25"/>
<path d="M18 26.0413C17.7417 26.0413 17.4917 26.008 17.2834 25.933C14.1 24.8413 9.04169 20.9663 9.04169 15.2413C9.04169 12.3247 11.4 9.95801 14.3 9.95801C15.7084 9.95801 17.025 10.508 18 11.4913C18.975 10.508 20.2917 9.95801 21.7 9.95801C24.6 9.95801 26.9584 12.333 26.9584 15.2413C26.9584 20.9747 21.9 24.8413 18.7167 25.933C18.5084 26.008 18.2584 26.0413 18 26.0413ZM14.3 11.208C12.0917 11.208 10.2917 13.0163 10.2917 15.2413C10.2917 20.933 15.7667 24.0997 17.6917 24.758C17.8417 24.808 18.1667 24.808 18.3167 24.758C20.2334 24.0997 25.7167 20.9413 25.7167 15.2413C25.7167 13.0163 23.9167 11.208 21.7084 11.208C20.4417 11.208 19.2667 11.7997 18.5084 12.8247C18.275 13.1413 17.7417 13.1413 17.5084 12.8247C16.7334 11.7913 15.5667 11.208 14.3 11.208Z" fill="white"/>
</svg>
