<svg width="36" height="36" viewBox="0 0 36 36" fill="none" xmlns="http://www.w3.org/2000/svg">
<path d="M12.6167 24.2666C12.1083 24.2666 11.6333 24.0916 11.2917 23.7666C10.8583 23.3583 10.65 22.7416 10.725 22.075L11.0333 19.375C11.0917 18.8666 11.4 18.1916 11.7583 17.825L18.6 10.5833C20.3083 8.77496 22.0917 8.72496 23.9 10.4333C25.7083 12.1416 25.7583 13.925 24.05 15.7333L17.2083 22.975C16.8583 23.35 16.2083 23.7 15.7 23.7833L13.0167 24.2416C12.875 24.25 12.75 24.2666 12.6167 24.2666ZM21.275 10.425C20.6333 10.425 20.075 10.825 19.5083 11.425L12.6667 18.675C12.5 18.85 12.3083 19.2666 12.275 19.5083L11.9667 22.2083C11.9333 22.4833 12 22.7083 12.15 22.85C12.3 22.9916 12.525 23.0416 12.8 23L15.4833 22.5416C15.725 22.5 16.125 22.2833 16.2917 22.1083L23.1333 14.8666C24.1667 13.7666 24.5417 12.75 23.0333 11.3333C22.3667 10.6916 21.7917 10.425 21.275 10.425Z" fill="#1B1B1B"/>
<path d="M22.45 17.125C22.4333 17.125 22.4083 17.125 22.3917 17.125C19.7917 16.8667 17.7 14.8917 17.3 12.3084C17.25 11.9667 17.4833 11.65 17.825 11.5917C18.1667 11.5417 18.4833 11.775 18.5417 12.1167C18.8583 14.1334 20.4917 15.6834 22.525 15.8834C22.8667 15.9167 23.1167 16.225 23.0833 16.5667C23.0417 16.8834 22.7667 17.125 22.45 17.125Z" fill="#1B1B1B"/>
<path d="M25.5 26.958H10.5C10.1583 26.958 9.875 26.6747 9.875 26.333C9.875 25.9913 10.1583 25.708 10.5 25.708H25.5C25.8417 25.708 26.125 25.9913 26.125 26.333C26.125 26.6747 25.8417 26.958 25.5 26.958Z" fill="#1B1B1B"/>
</svg>
