<svg width="19" height="19" viewBox="0 0 19 19" fill="none" xmlns="http://www.w3.org/2000/svg">
<path d="M16.8541 8.03113H16.25V8H9.5V11H13.7386C13.1203 12.7464 11.4586 14 9.5 14C7.01487 14 5 11.9851 5 9.5C5 7.01487 7.01487 5 9.5 5C10.6471 5 11.6908 5.43275 12.4854 6.13962L14.6068 4.01825C13.2673 2.76987 11.4755 2 9.5 2C5.35812 2 2 5.35812 2 9.5C2 13.6419 5.35812 17 9.5 17C13.6419 17 17 13.6419 17 9.5C17 8.99713 16.9482 8.50625 16.8541 8.03113Z" fill="#FFBB55"/>
<path d="M2.86475 6.00912L5.32887 7.81625C5.99562 6.1655 7.61037 5 9.5 5C10.6471 5 11.6907 5.43275 12.4854 6.13962L14.6067 4.01825C13.2672 2.76987 11.4755 2 9.5 2C6.61925 2 4.121 3.62637 2.86475 6.00912Z" fill="#FF3D00"/>
<path d="M9.50012 16.9998C11.4374 16.9998 13.1976 16.2584 14.5285 15.0528L12.2072 13.0885C11.4289 13.6804 10.4779 14.0005 9.50012 13.9998C7.54937 13.9998 5.89299 12.7559 5.26899 11.02L2.82324 12.9044C4.06449 15.3333 6.58524 16.9998 9.50012 16.9998Z" fill="#4CAF50"/>
<path d="M16.8541 8.03113H16.25V8H9.5V11H13.7386C13.4428 11.8312 12.91 12.5574 12.206 13.0891L12.2071 13.0884L14.5284 15.0526C14.3641 15.2019 17 13.25 17 9.5C17 8.99713 16.9482 8.50625 16.8541 8.03113Z" fill="#1976D2"/>
</svg>
