<svg width="18" height="18" viewBox="0 0 18 18" fill="none" xmlns="http://www.w3.org/2000/svg">
<path d="M8.19001 14.8127C7.97251 14.8127 7.7625 14.7827 7.59 14.7152C5.025 13.8377 0.9375 10.7027 0.9375 6.06769C0.9375 3.69019 2.85749 1.7627 5.21999 1.7627C6.35249 1.7627 7.40999 2.19768 8.19749 2.97018C8.99249 2.19768 10.0425 1.7627 11.175 1.7627C13.5375 1.7627 15.4575 3.69019 15.4575 6.06769C15.4575 6.39019 15.435 6.72019 15.39 7.05769C15.3675 7.23019 15.2625 7.38769 15.1125 7.47769C14.9625 7.56769 14.775 7.5752 14.61 7.5077C13.6875 7.1102 12.54 7.4102 11.94 8.2127C11.835 8.3552 11.6325 8.43019 11.49 8.43769C11.31 8.43769 11.145 8.3552 11.04 8.2127C10.6125 7.6427 9.96 7.3202 9.255 7.3202C8.0325 7.3202 7.035 8.32519 7.035 9.56269C7.035 11.5127 8.1525 12.9002 9.0975 13.7327C9.2325 13.8527 9.3 14.0252 9.285 14.2052C9.27 14.3852 9.17249 14.5427 9.01499 14.6402C8.93249 14.6852 8.86499 14.7152 8.82749 14.7227C8.63249 14.7827 8.41501 14.8127 8.19001 14.8127ZM5.21999 2.8877C3.47999 2.8877 2.0625 4.31269 2.0625 6.06769C2.0625 9.99019 5.325 12.4052 7.2 13.3352C6.4875 12.3827 5.9025 11.1227 5.9025 9.55518C5.9025 7.69518 7.40249 6.18769 9.24749 6.18769C10.0875 6.18769 10.875 6.4952 11.4825 7.0427C12.24 6.3677 13.32 6.06018 14.325 6.24768C14.325 6.18768 14.325 6.1277 14.325 6.0752C14.325 4.3202 12.9075 2.89518 11.1675 2.89518C10.17 2.89518 9.24749 3.36018 8.63999 4.16268C8.53499 4.30518 8.37001 4.3877 8.19001 4.3877C8.01001 4.3877 7.84501 4.30518 7.74001 4.16268C7.14751 3.35268 6.22499 2.8877 5.21999 2.8877Z" fill="#ABABAB"/>
<path d="M11.49 16.2375C11.3175 16.2375 11.1375 16.215 10.995 16.1625C10.35 15.945 9.30748 15.4125 8.35498 14.565C7.24498 13.5825 5.91748 11.9175 5.91748 9.55499C5.91748 7.69499 7.41747 6.1875 9.26247 6.1875C10.1025 6.1875 10.89 6.49501 11.4975 7.04251C12.4425 6.19501 13.8825 5.955 15.0675 6.4725C16.2825 7.0125 17.07 8.2275 17.07 9.5625C17.07 13.1175 13.95 15.5025 11.985 16.17C11.835 16.215 11.6625 16.2375 11.49 16.2375ZM9.25497 7.3125C8.03247 7.3125 7.03497 8.31749 7.03497 9.55499C7.03497 11.505 8.15247 12.8925 9.09747 13.725C9.92997 14.46 10.8075 14.9175 11.355 15.0975C11.415 15.12 11.5575 15.12 11.61 15.0975C12.735 14.715 15.9375 12.8775 15.9375 9.55499C15.9375 8.66249 15.4125 7.8525 14.61 7.5C13.7025 7.1025 12.54 7.4025 11.94 8.205C11.835 8.3475 11.6325 8.42249 11.49 8.42999C11.31 8.42999 11.145 8.3475 11.04 8.205C10.6125 7.635 9.95997 7.3125 9.25497 7.3125Z" fill="#ABABAB"/>
</svg>
