<svg width="18" height="18" viewBox="0 0 18 18" fill="none" xmlns="http://www.w3.org/2000/svg">
<path d="M15.2851 15.8475C15.1351 15.8475 14.9926 15.7875 14.8876 15.6825L10.1026 10.8975C9.88508 10.68 9.88508 10.32 10.1026 10.1025L15.9001 4.30501C16.0426 4.16251 16.2601 4.11001 16.4551 4.16251C16.6501 4.22251 16.8001 4.38001 16.8451 4.57501C16.9876 5.21251 17.0626 5.925 17.0626 6.75V11.25C17.0626 13.3275 16.6276 14.73 15.6826 15.6825C15.5776 15.7875 15.4201 15.81 15.2851 15.8475ZM11.2951 10.5L15.2401 14.445C15.7126 13.7175 15.9376 12.6825 15.9376 11.25V6.75C15.9376 6.4425 15.9301 6.15751 15.9076 5.88751L11.2951 10.5Z" fill="#ABABAB"/>
<path d="M4.70249 16.86C4.65749 16.86 4.62 16.8525 4.575 16.845C2.0925 16.275 0.9375 14.4975 0.9375 11.25V6.75C0.9375 2.6775 2.6775 0.9375 6.75 0.9375H11.25C14.4975 0.9375 16.275 2.0925 16.845 4.575C16.89 4.7625 16.83 4.965 16.695 5.1L5.09999 16.695C4.99499 16.8 4.85249 16.86 4.70249 16.86ZM6.75 2.0625C3.2925 2.0625 2.0625 3.2925 2.0625 6.75V11.25C2.0625 13.8525 2.78251 15.1575 4.53001 15.675L15.6675 4.5375C15.1575 2.79 13.845 2.07 11.2425 2.07H6.75V2.0625Z" fill="#ABABAB"/>
<path d="M11.2498 17.0626H6.74979C5.92479 17.0626 5.2198 16.9951 4.5748 16.8451C4.3723 16.8001 4.21478 16.6501 4.16228 16.4551C4.10228 16.2601 4.16228 16.0501 4.30478 15.9001L10.1023 10.1026C10.3198 9.88508 10.6798 9.88508 10.8973 10.1026L15.6823 14.8876C15.7873 14.9926 15.8473 15.1351 15.8473 15.2851C15.8473 15.4351 15.7873 15.5776 15.6823 15.6826C14.7298 16.6276 13.3273 17.0626 11.2498 17.0626ZM5.8873 15.9076C6.1573 15.9301 6.44229 15.9376 6.74979 15.9376H11.2498C12.6898 15.9376 13.7173 15.7126 14.4448 15.2401L10.4998 11.2951L5.8873 15.9076Z" fill="#ABABAB"/>
<path d="M6.83996 9.98278C6.36746 9.98278 5.89495 9.81028 5.51995 9.45778C4.32745 8.32528 3.84747 7.08028 4.13247 5.86528C4.41747 4.62028 5.50496 3.78027 6.83996 3.78027C8.17496 3.78027 9.26247 4.62028 9.54747 5.86528C9.82497 7.08778 9.34496 8.32528 8.15246 9.45778C7.78496 9.80278 7.31246 9.98278 6.83996 9.98278ZM5.22746 6.11277C4.98746 7.13277 5.67745 8.04778 6.29995 8.64028C6.60745 8.93278 7.07996 8.93278 7.37996 8.64028C7.99496 8.05528 8.68495 7.14027 8.45245 6.11277C8.24995 5.22027 7.45496 4.89778 6.83996 4.89778C6.22496 4.89778 5.43746 5.22027 5.22746 6.11277Z" fill="#ABABAB"/>
<path d="M6.8623 7.11719C6.4498 7.11719 6.1123 6.77969 6.1123 6.36719C6.1123 5.95469 6.4423 5.61719 6.8623 5.61719H6.86981C7.28231 5.61719 7.61981 5.95469 7.61981 6.36719C7.61981 6.77969 7.2748 7.11719 6.8623 7.11719Z" fill="#ABABAB"/>
</svg>
