<svg width="12" height="13" viewBox="0 0 12 13" fill="none" xmlns="http://www.w3.org/2000/svg">
<path d="M9.5 4.875C8.465 4.875 7.625 4.035 7.625 3C7.625 1.965 8.465 1.125 9.5 1.125C10.535 1.125 11.375 1.965 11.375 3C11.375 4.035 10.535 4.875 9.5 4.875ZM9.5 1.875C8.88 1.875 8.375 2.38 8.375 3C8.375 3.62 8.88 4.125 9.5 4.125C10.12 4.125 10.625 3.62 10.625 3C10.625 2.38 10.12 1.875 9.5 1.875Z" fill="#00BF60"/>
<path d="M6 11.875C3.035 11.875 0.625 9.465 0.625 6.5C0.625 3.535 3.035 1.125 6 1.125C6.365 1.125 6.73 1.16 7.085 1.235C7.29 1.275 7.42 1.475 7.375 1.68C7.335 1.885 7.135 2.015 6.935 1.97C6.63 1.905 6.315 1.875 6 1.875C3.45 1.875 1.375 3.95 1.375 6.5C1.375 9.05 3.45 11.125 6 11.125C8.55 11.125 10.625 9.05 10.625 6.5C10.625 6.19 10.595 5.88 10.535 5.58C10.495 5.375 10.625 5.18 10.83 5.14C11.035 5.095 11.23 5.23 11.27 5.435C11.34 5.785 11.375 6.145 11.375 6.505C11.375 9.465 8.965 11.875 6 11.875Z" fill="#00BF60"/>
</svg>
