<svg width="12" height="13" viewBox="0 0 12 13" fill="none" xmlns="http://www.w3.org/2000/svg">
<path d="M7.01121 1.50618L8.03815 3.57428C8.17819 3.85629 8.55162 4.13831 8.86281 4.18531L10.7222 4.49866C11.9125 4.70233 12.1926 5.56404 11.3368 6.42575L9.88975 7.89065C9.64858 8.13349 9.50854 8.61135 9.58634 8.95603L9.99867 10.7656C10.3254 12.1914 9.57078 12.7475 8.31823 12.0033L6.57554 10.9615C6.25657 10.7735 5.7431 10.7735 5.42413 10.9615L3.67367 11.9955C2.42111 12.7397 1.66647 12.1835 1.99322 10.7578L2.40556 8.9482C2.48335 8.61135 2.34332 8.13349 2.10214 7.88282L0.662873 6.43358C-0.192909 5.57187 0.0871654 4.70233 1.27748 4.50649L3.13686 4.19314C3.44805 4.13831 3.82148 3.86413 3.96152 3.58211L4.98846 1.51401C5.54083 0.385961 6.45885 0.385961 7.01121 1.50618Z" fill="#FFBF00"/>
</svg>
