<svg width="12" height="12" viewBox="0 0 12 12" fill="none" xmlns="http://www.w3.org/2000/svg">
<path d="M6 11.375C3.035 11.375 0.625 8.965 0.625 6C0.625 3.035 3.035 0.625 6 0.625C8.965 0.625 11.375 3.035 11.375 6C11.375 8.965 8.965 11.375 6 11.375ZM6 1.375C3.45 1.375 1.375 3.45 1.375 6C1.375 8.55 3.45 10.625 6 10.625C8.55 10.625 10.625 8.55 10.625 6C10.625 3.45 8.55 1.375 6 1.375Z" fill="#00BF60"/>
<path d="M5.29021 7.78981C5.19021 7.78981 5.09522 7.7498 5.02522 7.67981L3.61021 6.2648C3.46521 6.1198 3.46521 5.8798 3.61021 5.7348C3.75521 5.5898 3.99521 5.5898 4.14021 5.7348L5.29021 6.88481L7.86022 4.3148C8.00522 4.1698 8.24522 4.1698 8.39022 4.3148C8.53522 4.4598 8.53522 4.6998 8.39022 4.8448L5.55521 7.67981C5.48521 7.7498 5.39021 7.78981 5.29021 7.78981Z" fill="#00BF60"/>
</svg>
