<svg width="20" height="20" viewBox="0 0 20 20" fill="none" xmlns="http://www.w3.org/2000/svg">
<path d="M9.99996 18.9587C5.05829 18.9587 1.04163 14.942 1.04163 10.0003C1.04163 5.05866 5.05829 1.04199 9.99996 1.04199C14.9416 1.04199 18.9583 5.05866 18.9583 10.0003C18.9583 14.942 14.9416 18.9587 9.99996 18.9587ZM9.99996 2.29199C5.74996 2.29199 2.29163 5.75033 2.29163 10.0003C2.29163 14.2503 5.74996 17.7087 9.99996 17.7087C14.25 17.7087 17.7083 14.2503 17.7083 10.0003C17.7083 5.75033 14.25 2.29199 9.99996 2.29199Z" fill="#FF8000"/>
<path d="M8.8167 12.9837C8.65003 12.9837 8.4917 12.917 8.37503 12.8003L6.0167 10.442C5.77503 10.2003 5.77503 9.80033 6.0167 9.55866C6.25837 9.31699 6.65837 9.31699 6.90003 9.55866L8.8167 11.4753L13.1 7.19199C13.3417 6.95033 13.7417 6.95033 13.9834 7.19199C14.225 7.43366 14.225 7.83366 13.9834 8.07533L9.25837 12.8003C9.1417 12.917 8.98337 12.9837 8.8167 12.9837Z" fill="#FF8000"/>
</svg>
