<svg width="16" height="16" viewBox="0 0 16 16" fill="none" xmlns="http://www.w3.org/2000/svg">
<path d="M11.3335 13.8337H4.66683C1.72683 13.8337 0.833496 12.9403 0.833496 10.0003V9.66699C0.833496 9.39366 1.06016 9.16699 1.3335 9.16699C1.9735 9.16699 2.50016 8.64033 2.50016 8.00033C2.50016 7.36033 1.9735 6.83366 1.3335 6.83366C1.06016 6.83366 0.833496 6.60699 0.833496 6.33366V6.00033C0.833496 3.06033 1.72683 2.16699 4.66683 2.16699H11.3335C14.2735 2.16699 15.1668 3.06033 15.1668 6.00033V6.66699C15.1668 6.94033 14.9402 7.16699 14.6668 7.16699C14.0268 7.16699 13.5002 7.69366 13.5002 8.33366C13.5002 8.97366 14.0268 9.50033 14.6668 9.50033C14.9402 9.50033 15.1668 9.72699 15.1668 10.0003C15.1668 12.9403 14.2735 13.8337 11.3335 13.8337ZM1.8335 10.107C1.84683 12.4003 2.32016 12.8337 4.66683 12.8337H11.3335C13.5602 12.8337 14.1002 12.4403 14.1602 10.4403C13.2068 10.2137 12.5002 9.35366 12.5002 8.33366C12.5002 7.31366 13.2135 6.45366 14.1668 6.22699V6.00033C14.1668 3.62033 13.7202 3.16699 11.3335 3.16699H4.66683C2.32016 3.16699 1.84683 3.60033 1.8335 5.89366C2.78683 6.12033 3.50016 6.98033 3.50016 8.00033C3.50016 9.02033 2.78683 9.88032 1.8335 10.107Z" fill="#ABABAB"/>
<path d="M6.6665 4.83366C6.39317 4.83366 6.1665 4.60699 6.1665 4.33366V2.66699C6.1665 2.39366 6.39317 2.16699 6.6665 2.16699C6.93984 2.16699 7.1665 2.39366 7.1665 2.66699V4.33366C7.1665 4.60699 6.93984 4.83366 6.6665 4.83366Z" fill="#ABABAB"/>
<path d="M6.6665 9.7201C6.39317 9.7201 6.1665 9.49344 6.1665 9.2201V6.77344C6.1665 6.5001 6.39317 6.27344 6.6665 6.27344C6.93984 6.27344 7.1665 6.5001 7.1665 6.77344V9.2201C7.1665 9.5001 6.93984 9.7201 6.6665 9.7201Z" fill="#ABABAB"/>
<path d="M6.6665 13.8337C6.39317 13.8337 6.1665 13.607 6.1665 13.3337V11.667C6.1665 11.3937 6.39317 11.167 6.6665 11.167C6.93984 11.167 7.1665 11.3937 7.1665 11.667V13.3337C7.1665 13.607 6.93984 13.8337 6.6665 13.8337Z" fill="#ABABAB"/>
</svg>
