<svg width="16" height="16" viewBox="0 0 16 16" fill="none" xmlns="http://www.w3.org/2000/svg">
<path d="M11.3335 13.8337H4.66683C1.72683 13.8337 0.833496 12.9403 0.833496 10.0003V9.66699C0.833496 9.39366 1.06016 9.16699 1.3335 9.16699C1.9735 9.16699 2.50016 8.64033 2.50016 8.00033C2.50016 7.36033 1.9735 6.83366 1.3335 6.83366C1.06016 6.83366 0.833496 6.60699 0.833496 6.33366V6.00033C0.833496 3.06033 1.72683 2.16699 4.66683 2.16699H11.3335C14.2735 2.16699 15.1668 3.06033 15.1668 6.00033V6.66699C15.1668 6.94033 14.9402 7.16699 14.6668 7.16699C14.0268 7.16699 13.5002 7.69366 13.5002 8.33366C13.5002 8.97366 14.0268 9.50033 14.6668 9.50033C14.9402 9.50033 15.1668 9.72699 15.1668 10.0003C15.1668 12.9403 14.2735 13.8337 11.3335 13.8337ZM1.8335 10.107C1.84683 12.4003 2.32016 12.8337 4.66683 12.8337H11.3335C13.5602 12.8337 14.1002 12.4403 14.1602 10.4403C13.2068 10.2137 12.5002 9.35366 12.5002 8.33366C12.5002 7.31366 13.2135 6.45366 14.1668 6.22699V6.00033C14.1668 3.62033 13.7135 3.16699 11.3335 3.16699H4.66683C2.32016 3.16699 1.84683 3.60033 1.8335 5.89366C2.78683 6.12033 3.50016 6.98033 3.50016 8.00033C3.50016 9.02033 2.78683 9.88032 1.8335 10.107Z" fill="#ABABAB"/>
<path d="M9.99999 10.5863C9.62666 10.5863 9.32666 10.2863 9.32666 9.9196C9.32666 9.55293 9.62666 9.25293 9.99333 9.25293C10.36 9.25293 10.66 9.55293 10.66 9.9196C10.66 10.2863 10.3733 10.5863 9.99999 10.5863Z" fill="#ABABAB"/>
<path d="M5.99999 7.25325C5.62666 7.25325 5.32666 6.95325 5.32666 6.58659C5.32666 6.21992 5.62666 5.91992 5.99333 5.91992C6.35999 5.91992 6.65999 6.21992 6.65999 6.58659C6.65999 6.95325 6.37333 7.25325 5.99999 7.25325Z" fill="#ABABAB"/>
<path d="M5.75322 10.9537C5.62655 10.9537 5.49988 10.9071 5.39988 10.8071C5.20655 10.6137 5.20655 10.2937 5.39988 10.1004L9.88655 5.61375C10.0799 5.42042 10.3999 5.42042 10.5932 5.61375C10.7865 5.80708 10.7865 6.12708 10.5932 6.32042L6.10655 10.8071C6.01322 10.9071 5.87988 10.9537 5.75322 10.9537Z" fill="#ABABAB"/>
</svg>
