<svg width="36" height="36" viewBox="0 0 36 36" fill="none" xmlns="http://www.w3.org/2000/svg">
<path d="M18 26.9587C13.0583 26.9587 9.04163 22.942 9.04163 18.0003C9.04163 13.0587 13.0583 9.04199 18 9.04199C22.9416 9.04199 26.9583 13.0587 26.9583 18.0003C26.9583 22.942 22.9416 26.9587 18 26.9587ZM18 10.292C13.75 10.292 10.2916 13.7503 10.2916 18.0003C10.2916 22.2503 13.75 25.7087 18 25.7087C22.25 25.7087 25.7083 22.2503 25.7083 18.0003C25.7083 13.7503 22.25 10.292 18 10.292Z" fill="#C4C4C4"/>
<path d="M16.8167 20.9837C16.65 20.9837 16.4917 20.917 16.375 20.8003L14.0167 18.442C13.775 18.2003 13.775 17.8003 14.0167 17.5587C14.2584 17.317 14.6584 17.317 14.9 17.5587L16.8167 19.4753L21.1 15.192C21.3417 14.9503 21.7417 14.9503 21.9834 15.192C22.225 15.4337 22.225 15.8337 21.9834 16.0753L17.2584 20.8003C17.1417 20.917 16.9834 20.9837 16.8167 20.9837Z" fill="#C4C4C4"/>
</svg>
