<svg width="26" height="19" viewBox="0 0 26 19" fill="none" xmlns="http://www.w3.org/2000/svg">
<path d="M1.19317 0.666992C0.626271 0.666992 0.166504 1.16602 0.166504 1.78164V17.0523C0.166504 17.6679 0.626502 18.167 1.19317 18.167H24.8065C25.3734 18.167 25.8332 17.668 25.8332 17.0523V1.78164C25.8332 1.16605 25.3732 0.666992 24.8065 0.666992H1.19317ZM15.4959 5.88233C16.1206 5.88233 16.6212 6.03214 16.9405 6.17144L16.7223 7.66142L16.5779 7.58217C16.2805 7.44286 15.8985 7.3088 15.3716 7.3183C14.7408 7.3183 14.4492 7.6238 14.4492 7.90962C14.4455 8.23167 14.7899 8.44407 15.3531 8.76214C16.2827 9.25286 16.7123 9.84786 16.7063 10.63C16.6938 12.0573 15.5943 12.9795 13.9006 12.9795C13.178 12.9709 12.4818 12.8048 12.1055 12.6129L12.3317 11.0733L12.5395 11.183C13.0686 11.4397 13.4113 11.5435 14.0562 11.5435C14.5193 11.5435 15.0163 11.333 15.0203 10.8721C15.0233 10.5712 14.8125 10.3566 14.1853 10.0196C13.5741 9.69067 12.7639 9.13967 12.7729 8.1517C12.7824 6.8152 13.9038 5.88233 15.4959 5.88233V5.88233ZM2.43639 6.10091H5.03755C5.38782 6.11529 5.67062 6.23773 5.76825 6.6504L6.32892 9.79232C6.32899 9.7926 6.32881 9.79374 6.32892 9.79405L6.49734 10.7354L8.07664 6.10091H9.78509L7.24568 12.8846L5.53884 12.8863L4.18013 7.41235C4.98858 7.87735 5.67685 8.41537 6.07546 9.15575C5.97269 8.92147 5.83727 8.65702 5.664 8.39639C5.4622 8.09287 5.02641 7.70099 4.84425 7.53427C4.20952 6.95334 3.3475 6.48415 2.41634 6.23589L2.43639 6.10091V6.10091ZM10.4645 6.10874H12.1352L11.0901 12.882H9.41934L10.4645 6.10874V6.10874ZM19.901 6.10874H21.1667L22.4917 12.882H20.9725C20.9725 12.882 20.8218 12.1039 20.7728 11.8666C20.5341 11.8666 18.8641 11.864 18.6762 11.864C18.6126 12.0474 18.3313 12.882 18.3313 12.882H16.6124L19.0435 6.6713C19.2157 6.22996 19.5091 6.10874 19.901 6.10874V6.10874ZM20.0253 7.9305C19.9431 8.18243 19.7999 8.58928 19.8095 8.57142C19.8095 8.57142 19.2952 10.0606 19.1607 10.4472L20.5121 10.4463C20.447 10.1104 20.1352 8.50877 20.1352 8.50877L20.0253 7.93055V7.9305Z" fill="#2251CB"/>
</svg>
