<svg width="18" height="18" viewBox="0 0 18 18" fill="none" xmlns="http://www.w3.org/2000/svg">
<path d="M3.90002 7.84491C3.75752 7.84491 3.60752 7.78491 3.50252 7.67991C3.34502 7.51491 3.29252 7.27491 3.38252 7.06491L4.77752 3.73491C4.80752 3.66741 4.82252 3.62241 4.84502 3.58491C5.95502 1.02741 7.37252 0.404908 9.87752 1.36491C10.02 1.41741 10.1325 1.52991 10.1925 1.67241C10.2525 1.81491 10.2525 1.97241 10.1925 2.11491L7.99502 7.21491C7.90502 7.42491 7.70252 7.55241 7.47752 7.55241H5.34002C4.91252 7.55241 4.50752 7.63491 4.11752 7.79991C4.05002 7.82991 3.97502 7.84491 3.90002 7.84491ZM7.95752 2.06241C7.02752 2.06241 6.45752 2.66991 5.86502 4.04991C5.85752 4.07241 5.84252 4.09491 5.83502 4.11741L4.85252 6.44991C5.01752 6.43491 5.17502 6.42741 5.34002 6.42741H7.10252L8.91002 2.22741C8.55752 2.11491 8.24252 2.06241 7.95752 2.06241Z" fill="#ABABAB"/>
<path d="M13.7174 7.70219C13.6649 7.70219 13.6049 7.69469 13.5524 7.67969C13.2674 7.59719 12.9674 7.55219 12.6524 7.55219H7.47743C7.28993 7.55219 7.10993 7.45469 7.00493 7.29719C6.90743 7.13969 6.88493 6.93719 6.95993 6.76469L9.13493 1.71719C9.24743 1.44719 9.57743 1.25969 9.85493 1.35719C9.94493 1.38719 10.0274 1.42469 10.1174 1.46219L11.8874 2.20469C12.9224 2.63219 13.6124 3.08219 14.0624 3.62219C14.1524 3.72719 14.2274 3.83969 14.3024 3.95969C14.3849 4.08719 14.4599 4.23719 14.5124 4.39469C14.5349 4.44719 14.5724 4.54469 14.5949 4.64969C14.8049 5.36219 14.6999 6.23219 14.2499 7.35719C14.1524 7.56719 13.9424 7.70219 13.7174 7.70219ZM8.33243 6.42719H12.6599C12.8999 6.42719 13.1324 6.44969 13.3649 6.48719C13.5749 5.83469 13.6199 5.33219 13.4999 4.92719C13.4849 4.85969 13.4699 4.82969 13.4624 4.79969C13.4174 4.67969 13.3874 4.61219 13.3499 4.55219C13.2974 4.46969 13.2599 4.40219 13.1999 4.33469C12.8774 3.94469 12.3074 3.58469 11.4524 3.23219L9.97493 2.61719L8.33243 6.42719Z" fill="#ABABAB"/>
<path d="M11.925 17.0627H6.075C5.865 17.0627 5.67 17.0477 5.475 17.0252C2.8425 16.8527 1.3425 15.3452 1.1625 12.6827C1.14 12.5177 1.125 12.3152 1.125 12.1127V10.6502C1.125 8.96273 2.13 7.44023 3.6825 6.76523C4.215 6.54023 4.77 6.42773 5.3475 6.42773H12.6675C13.095 6.42773 13.5075 6.48773 13.89 6.60773C15.6525 7.14023 16.89 8.80523 16.89 10.6502V12.1127C16.89 12.2777 16.8825 12.4352 16.875 12.5852C16.71 15.5177 15 17.0627 11.925 17.0627ZM5.34 7.55273C4.9125 7.55273 4.5075 7.63523 4.1175 7.80023C2.9775 8.29523 2.2425 9.41273 2.2425 10.6502V12.1127C2.2425 12.2702 2.2575 12.4277 2.2725 12.5777C2.415 14.7152 3.465 15.7652 5.5725 15.9077C5.76 15.9302 5.91 15.9452 6.0675 15.9452H11.9175C14.3925 15.9452 15.6075 14.8577 15.7275 12.5327C15.735 12.3977 15.7425 12.2627 15.7425 12.1127V10.6502C15.7425 9.29273 14.835 8.07773 13.545 7.68023C13.26 7.59773 12.96 7.55273 12.645 7.55273H5.34Z" fill="#ABABAB"/>
<path d="M1.67993 11.2128C1.37243 11.2128 1.11743 10.9578 1.11743 10.6503V8.45284C1.11743 6.09034 2.78993 4.05034 5.09993 3.60034C5.30243 3.56284 5.51243 3.63784 5.64743 3.79534C5.77493 3.95284 5.81243 4.17784 5.72993 4.36534L4.41743 7.50034C4.35743 7.63534 4.25243 7.74034 4.12493 7.80034C2.98493 8.29534 2.24993 9.41284 2.24993 10.6503C2.24243 10.9578 1.99493 11.2128 1.67993 11.2128ZM4.19993 5.11534C3.23993 5.65534 2.54243 6.60034 2.32493 7.70284C2.65493 7.36534 3.03743 7.08034 3.47243 6.87034L4.19993 5.11534Z" fill="#ABABAB"/>
<path d="M16.3201 11.2123C16.0126 11.2123 15.7576 10.9573 15.7576 10.6498C15.7576 9.29233 14.8501 8.07733 13.5601 7.67983C13.4101 7.63483 13.2826 7.52983 13.2151 7.38733C13.1476 7.24483 13.1401 7.07983 13.2001 6.93733C13.5526 6.05983 13.6426 5.42233 13.5001 4.92733C13.4851 4.85983 13.4701 4.82983 13.4626 4.79983C13.3651 4.58233 13.4176 4.32733 13.5901 4.16233C13.7626 3.99733 14.0251 3.95983 14.2351 4.07233C15.8701 4.92733 16.8826 6.60733 16.8826 8.45233V10.6498C16.8826 10.9573 16.6276 11.2123 16.3201 11.2123ZM14.4376 6.81733C14.9101 7.03483 15.3301 7.34233 15.6826 7.70983C15.5401 6.97483 15.1876 6.30733 14.6701 5.78233C14.6326 6.09733 14.5576 6.44233 14.4376 6.81733Z" fill="#ABABAB"/>
</svg>
