<svg width="42" height="42" viewBox="0 0 42 42" fill="none" xmlns="http://www.w3.org/2000/svg">
<circle opacity="0.1" cx="21.0002" cy="20.9997" r="18.6667" fill="#0057FF"/>
<ellipse cx="39.1591" cy="20.4921" rx="1.82609" ry="1.82609" fill="#0057FF"/>
<ellipse cx="13.0361" cy="8.95257" rx="1.36956" ry="1.36957" fill="#00BF60"/>
<path d="M32.147 24.3498V26.4015C32.147 26.9592 31.6761 27.4173 31.0927 27.4173H29.1172C28.0118 27.4173 26.9984 26.6305 26.9063 25.5549C26.8449 24.9275 27.0906 24.3399 27.5205 23.9315C27.8992 23.5531 28.4212 23.334 28.9944 23.334H31.0927C31.6761 23.334 32.147 23.7921 32.147 24.3498Z" fill="#FFBF00"/>
<path d="M25.348 25.677C25.2603 24.6562 25.6305 23.6548 26.3708 22.9257C26.9943 22.2937 27.8613 21.9243 28.7964 21.9243H29.3517C29.6245 21.9243 29.8485 21.7007 29.8095 21.4284C29.5465 19.5423 27.91 18.084 25.9519 18.084H16.2105C14.0577 18.084 12.314 19.8243 12.314 21.9729V28.7784C12.314 30.927 14.0577 32.6673 16.2105 32.6673H25.9519C27.9197 32.6673 29.5465 31.209 29.8095 29.3229C29.8485 29.0506 29.6245 28.827 29.3517 28.827H28.9133C27.0625 28.827 25.5038 27.4465 25.348 25.677ZM23.0295 23.6743H17.1847C16.7853 23.6743 16.4541 23.3534 16.4541 22.9451C16.4541 22.5368 16.7853 22.2159 17.1847 22.2159H23.0295C23.4289 22.2159 23.7601 22.5465 23.7601 22.9451C23.7601 23.3437 23.4289 23.6743 23.0295 23.6743Z" fill="#0057FF"/>
<mask id="mask0_3983_24880" style="mask-type:alpha" maskUnits="userSpaceOnUse" x="12" y="18" width="18" height="15">
<path d="M25.348 25.677C25.2603 24.6562 25.6305 23.6548 26.3708 22.9257C26.9943 22.2937 27.8613 21.9243 28.7964 21.9243H29.3517C29.6245 21.9243 29.8485 21.7007 29.8095 21.4284C29.5465 19.5423 27.91 18.084 25.9519 18.084H16.2105C14.0577 18.084 12.314 19.8243 12.314 21.9729V28.7784C12.314 30.927 14.0577 32.6673 16.2105 32.6673H25.9519C27.9197 32.6673 29.5465 31.209 29.8095 29.3229C29.8485 29.0506 29.6245 28.827 29.3517 28.827H28.9133C27.0625 28.827 25.5038 27.4465 25.348 25.677ZM23.0295 23.6743H17.1847C16.7853 23.6743 16.4541 23.3534 16.4541 22.9451C16.4541 22.5368 16.7853 22.2159 17.1847 22.2159H23.0295C23.4289 22.2159 23.7601 22.5465 23.7601 22.9451C23.7601 23.3437 23.4289 23.6743 23.0295 23.6743Z" fill="#0057FF"/>
</mask>
<g mask="url(#mask0_3983_24880)">
<path d="M30.3975 22.459C29.9114 22.459 26.6058 24.7923 25.4391 24.7923C25.1475 22.459 27.4808 21.2923 26.6058 19.5423C25.5048 17.6936 22.7674 17.9487 21.6475 17.5007C22.4252 17.1118 26.2558 16.5674 28.3558 17.5007C30.4558 18.434 30.5919 21.1951 30.3975 22.459Z" fill="#0000E5"/>
</g>
<path d="M24.4565 16.1203C24.7088 16.348 24.4856 16.6855 24.1168 16.6855H16.5174C15.4596 16.6855 14.4696 16.9554 13.6446 17.4194C13.2661 17.6303 12.7517 17.4026 12.9361 17.0398C13.4796 15.9347 14.7511 15.167 16.2166 15.167H21.671C22.7969 15.167 23.7965 15.5129 24.4565 16.1203Z" fill="#FFBF00"/>
</svg>
